<svg width="800" height="1200" viewBox="0 0 800 1200" fill="none" xmlns="http://www.w3.org/2000/svg">
<path d="M670.477 6.59422C671.891 18.6804 669.72 30.9161 664.236 41.7737C658.752 52.6314 650.197 61.6301 639.639 67.6464L60.7479 396.765C33.1037 412.456 12.8131 438.507 4.33945 469.187C-4.13419 499.867 -0.0966852 532.663 15.5637 560.361L97.5757 705.36L116.064 738.108L128.266 731.218C126.879 719.147 129.071 706.934 134.569 696.103C140.066 685.272 148.625 676.302 159.177 670.314L738.438 341.492C752.127 333.723 764.154 323.328 773.831 310.899C783.507 298.471 790.644 284.254 794.834 269.061C799.023 253.867 800.183 237.996 798.247 222.353C796.31 206.71 791.315 191.603 783.548 177.896L701.61 32.9711L682.975 0L670.477 6.59422Z" fill="#23B3E5"/>
<path d="M671.734 468.782C673.121 480.853 670.929 493.067 665.431 503.897C659.934 514.728 651.375 523.698 640.823 529.686L61.5614 858.656C33.9571 874.347 13.6953 900.372 5.22386 931.016C-3.2476 961.66 0.763739 994.42 16.3773 1022.1L98.3893 1167.03L117.025 1200L129.153 1193.11C127.739 1181.02 129.91 1168.79 135.394 1157.93C140.878 1147.07 149.433 1138.07 159.991 1132.06L739.252 803.235C766.896 787.544 787.187 761.493 795.66 730.813C804.134 700.133 800.096 667.337 784.436 639.639L702.424 494.64L683.936 461.892L671.734 468.782Z" fill="#23B3E5"/>
</svg>
